<?xml version="1.0" encoding="UTF-8"?>
<svg version="1.1" xmlns="http://www.w3.org/2000/svg" width="500" height="500">
<path d="M0 0 C9.2552924 6.65814402 14.76989138 15.87872362 16.88671875 26.9609375 C18.47311714 38.38657083 14.85325382 47.72201199 8.671875 57.21484375 C2.60653304 63.44866743 -4.04559541 67.37640073 -11.8359375 71.1328125 C-16.6765874 73.59451052 -19.64148802 76.03457857 -22.578125 80.71484375 C-23.94456907 85.92441178 -23.66870653 89.55756274 -21.578125 94.52734375 C-17.10399884 101.26436513 -11.13552944 105.78670338 -4.45678711 110.20336914 C1.00375554 113.82645155 5.69668221 118.00828353 10.421875 122.52734375 C11.16953125 123.20023438 11.9171875 123.873125 12.6875 124.56640625 C32.37223554 142.94341461 40.70899135 169.35833857 42.64453125 195.5390625 C43.58179146 224.75713071 31.06766021 251.08644842 11.640625 272.2578125 C8.41116046 275.56119084 4.98755115 278.59319062 1.421875 281.52734375 C2.44925781 281.87925781 3.47664062 282.23117187 4.53515625 282.59375 C17.88485918 287.29409929 28.25271461 293.54007078 38.421875 303.52734375 C39.18371094 304.2646875 39.94554687 305.00203125 40.73046875 305.76171875 C56.91803788 322.48232742 63.81430591 345.56643396 63.79492188 368.45898438 C63.25626379 390.65541224 53.78832088 412.56636276 38.421875 428.52734375 C21.82505493 444.10562512 1.70451234 452.27580085 -21.05883789 451.99609375 C-43.70384429 451.15860146 -63.3218402 442.56214388 -78.953125 426.08984375 C-86.644504 416.96714473 -90.70462261 405.90329267 -90.5234375 393.90625 C-89.40410836 383.47821419 -85.47479864 374.30543561 -77.70703125 367.09375 C-67.23946964 359.39192944 -57.24102792 357.62647591 -44.578125 358.52734375 C-34.19564891 360.78160345 -25.61159539 366.81831655 -19.578125 375.52734375 C-13.95913501 384.93545527 -12.53463873 396.03843139 -14.76171875 406.68359375 C-17.08532693 414.77731027 -21.09848505 420.3938543 -26.7734375 426.5078125 C-30.19853029 430.34065443 -31.71708928 433.62570644 -31.828125 438.71484375 C-31.74500659 442.44915674 -31.74500659 442.44915674 -30.578125 445.52734375 C-11.21244215 449.83819781 6.74542541 444.93985599 23.421875 434.52734375 C40.60812963 422.22252532 50.42796769 406.46130662 56.421875 386.52734375 C56.69 385.66882813 56.958125 384.8103125 57.234375 383.92578125 C61.50563081 367.13737301 58.80785433 347.81218101 50.05078125 333.01953125 C41.5166268 319.9624796 30.52297956 310.40793471 15.234375 306.15234375 C-4.4470448 302.92588149 -20.32214237 306.95289592 -36.578125 318.52734375 C-52.01016665 329.80547906 -52.01016665 329.80547906 -63.578125 344.52734375 C-64.238125 344.52734375 -64.898125 344.52734375 -65.578125 344.52734375 C-65.79726562 345.07519531 -66.01640625 345.62304688 -66.2421875 346.1875 C-68.00476624 349.27458967 -70.40781499 351.53005378 -72.953125 353.96484375 C-76.42582168 357.31218908 -79.57507668 360.74850795 -82.578125 364.52734375 C-85.12472204 367.00165747 -87.85410467 369.25104302 -90.578125 371.52734375 C-91.72667969 372.50767578 -91.72667969 372.50767578 -92.8984375 373.5078125 C-108.47163741 386.45209603 -125.23533223 393.1849381 -145.578125 391.52734375 C-160.5098207 389.42115273 -171.93730266 383.13166241 -182.578125 372.52734375 C-183.53525391 371.60501953 -183.53525391 371.60501953 -184.51171875 370.6640625 C-196.93777121 357.73986094 -201.18536008 339.25248984 -200.8515625 321.8515625 C-200.08033976 304.88084437 -192.69645732 289.30610809 -180.578125 277.52734375 C-179.67513672 276.59341797 -179.67513672 276.59341797 -178.75390625 275.640625 C-172.67377059 269.77151357 -165.06101912 266.27853416 -157.578125 262.52734375 C-157.990625 261.99109375 -158.403125 261.45484375 -158.828125 260.90234375 C-172.65946771 242.13123579 -180.01795127 220.5391977 -179.890625 197.21484375 C-179.88498535 196.12179932 -179.8793457 195.02875488 -179.87353516 193.90258789 C-179.47635846 167.3487697 -168.41359059 143.83546247 -150.578125 124.52734375 C-149.96195313 123.8415625 -149.34578125 123.15578125 -148.7109375 122.44921875 C-129.90824677 102.47698266 -100.61722482 91.44867604 -73.578125 90.52734375 C-72.41216797 90.46740234 -72.41216797 90.46740234 -71.22265625 90.40625 C-58.72575492 90.05039184 -46.49037178 92.22118142 -34.5546875 95.72265625 C-31.60935438 96.65783017 -31.60935438 96.65783017 -28.578125 96.52734375 C-29.21878906 95.84929687 -29.85945312 95.17125 -30.51953125 94.47265625 C-46.59062534 77.18006321 -59.84730815 55.95571498 -59.578125 31.52734375 C-58.70598756 20.2207048 -54.0469819 10.16124293 -45.578125 2.52734375 C-31.84423101 -7.29354133 -14.75502486 -8.42824905 0 0 Z M-85.82421875 101.43359375 C-97.54898404 115.43019552 -101.19430196 133.90138634 -103.578125 151.52734375 C-103.68253906 152.26871582 -103.78695312 153.01008789 -103.89453125 153.77392578 C-107.73663929 182.6566082 -107.7838703 214.71375444 -103.578125 243.52734375 C-103.44390137 244.45289063 -103.30967773 245.3784375 -103.17138672 246.33203125 C-100.38110003 264.77326158 -96.73975329 286.49943648 -80.953125 298.52734375 C-78.15009032 299.70756888 -77.39858669 299.43483721 -74.578125 298.52734375 C-72.07353755 297.3334619 -69.60490364 296.1116351 -67.140625 294.83984375 C-58.99620957 290.63753802 -58.99620957 290.63753802 -54.8125 289.015625 C-47.47939346 286.14513261 -47.47939346 286.14513261 -42.578125 280.27734375 C-41.84098406 278.38666165 -41.18341423 276.46426928 -40.578125 274.52734375 C-40.3728418 273.91375 -40.16755859 273.30015625 -39.95605469 272.66796875 C-32.2443121 249.36337621 -31.3612296 224.62000324 -31.390625 200.27734375 C-31.39122925 199.35248169 -31.3918335 198.42761963 -31.39245605 197.47473145 C-31.11330056 149.34683167 -31.11330056 149.34683167 -48.578125 105.52734375 C-49.17625 104.59921875 -49.774375 103.67109375 -50.390625 102.71484375 C-55.6198229 97.48564585 -61.72118091 94.77583856 -69.09765625 94.3984375 C-75.50801189 94.73157409 -81.15005931 97.00886741 -85.82421875 101.43359375 Z M-161.5390625 271.3203125 C-167.95619625 278.26606072 -169.91922996 286.47829526 -169.78515625 295.65625 C-169.17399495 304.13178883 -165.45392608 310.49273723 -159.578125 316.52734375 C-152.86166017 322.08088711 -146.00374484 325.01609149 -137.21484375 324.77734375 C-117.77152293 322.93382889 -101.4478738 313.57945681 -84.578125 304.52734375 C-84.578125 304.19734375 -84.578125 303.86734375 -84.578125 303.52734375 C-85.57328125 303.33140625 -86.5684375 303.13546875 -87.59375 302.93359375 C-103.53270989 299.5992855 -119.38464715 294.30251143 -132.578125 284.52734375 C-133.09955078 284.14819824 -133.62097656 283.76905273 -134.15820312 283.37841797 C-140.60454953 278.67437782 -146.6589019 273.81027071 -152.08984375 267.92578125 C-155.66895791 264.5627291 -158.67704317 268.76530979 -161.5390625 271.3203125 Z " fill="#00BF62" transform="translate(295.578125,27.47265625)"/>
<path d="M0 0 C7.35122722 5.91294364 12.70467144 12.71580585 13.875 22.3125 C14.47196706 31.11776413 12.55430024 39.37113304 6.875 46.3125 C0.19749314 53.41850997 -7.35098731 56.49374138 -17.0625 56.8125 C-25.85566859 56.50698274 -32.99918502 54.68065525 -39.5625 48.625 C-45.7633801 41.81419726 -48.48228253 33.71905706 -48.34375 24.55859375 C-47.40805058 14.95096582 -43.14209372 7.80331169 -36.125 1.3125 C-35.5475 0.77625 -34.97 0.24 -34.375 -0.3125 C-23.32786808 -7.06352506 -11.05635774 -5.97043318 0 0 Z " fill="#00BF62" transform="translate(400.125,307.6875)"/>
<path d="M0 0 C-0.33 1.65 -0.66 3.3 -1 5 C-1.99 5.33 -2.98 5.66 -4 6 C-4 6.66 -4 7.32 -4 8 C-2.35 8.33 -0.7 8.66 1 9 C1 10.32 1 11.64 1 13 C-2.3 13.33 -5.6 13.66 -9 14 C-9 13.01 -9 12.02 -9 11 C-8.34 11 -7.68 11 -7 11 C-7 10.34 -7 9.68 -7 9 C-7.66 9 -8.32 9 -9 9 C-9 8.01 -9 7.02 -9 6 C-9.66 5.67 -10.32 5.34 -11 5 C-11 4.01 -11 3.02 -11 2 C-9.5422647 1.664061 -8.08378894 1.33133376 -6.625 1 C-5.40683594 0.7215625 -5.40683594 0.7215625 -4.1640625 0.4375 C-2 0 -2 0 0 0 Z " fill="#141413" transform="translate(330,43)"/>
<path d="M0 0 C1.39935013 2.79870027 1.25265405 4.90498792 1 8 C-0.3125 9.875 -0.3125 9.875 -2 11 C-2.99 11 -3.98 11 -5 11 C-5.33 10.34 -5.66 9.68 -6 9 C-6.66 8.67 -7.32 8.34 -8 8 C-10 7 -10 7 -11 5 C-8.03317807 -0.79236662 -6.32166021 -1.4795375 0 0 Z M-5 2 C-5.99 3.485 -5.99 3.485 -7 5 C-6.01 6.485 -6.01 6.485 -5 8 C-4.01 7.67 -3.02 7.34 -2 7 C-2.34786708 5.02463255 -2.34786708 5.02463255 -3 3 C-3.66 2.67 -4.32 2.34 -5 2 Z " fill="#131312" transform="translate(321,79)"/>
<path d="M0 0 C0 0.99 0 1.98 0 3 C-1.98 3 -3.96 3 -6 3 C-6 3.99 -6 4.98 -6 6 C-5.01 6.33 -4.02 6.66 -3 7 C-3 6.01 -3 5.02 -3 4 C-2.01 4 -1.02 4 0 4 C0.042721 5.66611905 0.04063832 7.33382885 0 9 C-1 10 -1 10 -4.4375 10.1875 C-8 10 -8 10 -10 8 C-10.3125 4.5 -10.3125 4.5 -10 1 C-6.1496895 -1.56687367 -4.41430237 -0.83288724 0 0 Z " fill="#151514" transform="translate(290,9)"/>
<path d="M0 0 C1.32176485 0.90325616 2.63215066 1.82317903 3.9375 2.75 C4.66839844 3.26046875 5.39929688 3.7709375 6.15234375 4.296875 C8.20805399 6.19177915 8.62669176 7.27425729 9 10 C4.8803623 11.29243536 1.33168317 12.26252625 -3 12 C-3 11.01 -3 10.02 -3 9 C-2.01 9 -1.02 9 0 9 C-0.185625 7.700625 -0.37125 6.40125 -0.5625 5.0625 C-0.87890625 2.84765625 -0.87890625 2.84765625 -1 1 C-0.67 0.67 -0.34 0.34 0 0 Z " fill="#141413" transform="translate(321,61)"/>
<path d="M0 0 C3.25696479 0.41755959 4.63443291 0.63443291 7 3 C7 3.99 7 4.98 7 6 C6.01 6 5.02 6 4 6 C4 7.65 4 9.3 4 11 C2.3125 11.75 2.3125 11.75 0 12 C-2.75 10.0625 -2.75 10.0625 -5 8 C-4.67 7.01 -4.34 6.02 -4 5 C-3.34 5 -2.68 5 -2 5 C-1.67 5.33 -1.34 5.66 -1 6 C-1.020625 5.195625 -1.04125 4.39125 -1.0625 3.5625 C-1 1 -1 1 0 0 Z M2 4 C2.66 4.66 3.32 5.32 4 6 C4 5.34 4 4.68 4 4 C3.34 4 2.68 4 2 4 Z " fill="#141413" transform="translate(308,17)"/>
<path d="M0 0 C4.42857143 5.14285714 4.42857143 5.14285714 5 9 C4.01 9 3.02 9 2 9 C0.65938457 9.30271961 -0.67405895 9.63837971 -2 10 C-3.33333333 10.33333333 -4.66666667 10.66666667 -6 11 C-6 9.68 -6 8.36 -6 7 C-4.68 6.34 -3.36 5.68 -2 5 C-2 3.68 -2 2.36 -2 1 C-1.34 0.67 -0.68 0.34 0 0 Z " fill="#131313" transform="translate(321,27)"/>
<path d="M0 0 C0.99 0.33 1.98 0.66 3 1 C2.01 3.97 1.02 6.94 0 10 C-1.32 10 -2.64 10 -4 10 C-3.52449439 8.51965236 -3.04448784 7.04074979 -2.5625 5.5625 C-2.29566406 4.73878906 -2.02882813 3.91507813 -1.75390625 3.06640625 C-1 1 -1 1 0 0 Z " fill="#131312" transform="translate(299,11)"/>
</svg>
