<?xml version="1.0" encoding="UTF-8"?>
<svg version="1.1" xmlns="http://www.w3.org/2000/svg" width="850" height="288">
<path d="M0 0 C5.19710544 6.66295569 5.93225303 12.73541978 5 21 C1.97435353 28.79637535 -4.33537772 32.71187114 -11.23046875 36.8515625 C-13.1468141 38.00802236 -13.1468141 38.00802236 -15 40 C-15.44540638 43.93442298 -15.56785001 46.16461789 -13.30859375 49.48828125 C-10.93592551 52.06971218 -8.57987618 53.90311129 -5.6875 55.875 C8.28181452 65.83718047 15.3261555 77.85359789 18.75 94.6875 C18.8325 95.780625 18.915 96.87375 19 98 C19.06316406 98.68578125 19.12632812 99.3715625 19.19140625 100.078125 C19.94436344 114.74864575 14.30122798 129.09387867 4.8125 140.0625 C2.59336889 142.4829724 0.75366469 144.16422354 -2 146 C-1.24976563 146.32871094 -0.49953125 146.65742188 0.2734375 146.99609375 C13.56026034 153.17095222 22.34703513 161.58633783 27.8125 175.25 C31.69805439 187.52017175 31.04836049 200.18435874 26 212 C24.22519461 215.20319154 22.22787008 218.09887248 20 221 C19.4225 221.86625 18.845 222.7325 18.25 223.625 C9.63726592 232.71621931 -1.01769601 237.10389514 -13.4375 237.5 C-25.99481303 237.10196656 -37.12028341 233.26589611 -45.87890625 224.015625 C-50.75492981 217.95290656 -52.68605907 211.82107334 -52 204 C-50.59049001 196.95245004 -46.73367616 193.09872692 -41 189 C-36.63592751 186.42631623 -31.93847403 186.25883881 -27 187 C-20.37197746 189.11742176 -16.18817243 192.00811163 -12.83984375 198.1328125 C-10.23121808 203.93245468 -10.19212185 209.48660131 -12.125 215.5 C-14.09981587 219.18632295 -16.3671302 222.46045269 -18.890625 225.7890625 C-20.3015078 228.6008923 -19.89067961 230.04832921 -19 233 C-9.16636338 234.80283338 -0.89005351 232.99947041 7.75 227.9375 C18.26107381 220.68273868 23.83975086 210.69269678 26.59375 198.3359375 C27.95412238 188.59690795 25.94832491 178.89741196 20 171 C14.23637487 164.7194085 8.72207136 160.6269676 0.18359375 159.69140625 C-11.50216988 159.1989028 -19.38038504 163.50601926 -28 171 C-33.19343852 175.97552461 -38.15838862 181.19947549 -43.12890625 186.39624023 C-52.85836742 196.5406183 -61.85998667 205.00148531 -76.625 205.3125 C-86.25147903 205.21264026 -93.16798249 202.61675542 -100.1796875 195.98828125 C-107.13961276 188.38613113 -110.12309142 181.36429743 -110 171 C-110.91700684 171.15146484 -111.83401367 171.30292969 -112.77880859 171.45898438 C-116.22574922 172.02441312 -119.67370524 172.58263641 -123.12255859 173.13623047 C-124.60674033 173.37592598 -126.09048071 173.61837289 -127.57373047 173.86376953 C-146.11462618 176.92683052 -146.11462618 176.92683052 -152 176 C-154.76223278 173.23776722 -154.57856291 170.79293383 -155 167 C-155.556875 167.32613281 -156.11375 167.65226563 -156.6875 167.98828125 C-169.18377002 175.14408452 -181.95360167 178.30133299 -196.28125 175.31640625 C-205.52342396 172.18808613 -213.20506945 166.60704925 -218 158 C-221.51202964 149.56600182 -222.03423069 141.52749579 -218.8671875 132.921875 C-212.29454984 118.62728599 -200.82336819 111.30012108 -186.51953125 105.84765625 C-180.04540664 103.47165724 -173.52349257 101.23597705 -167 99 C-162.03649386 97.28534617 -157.07984279 95.55200115 -152.125 93.8125 C-150.97950684 93.42078613 -149.83401367 93.02907227 -148.65380859 92.62548828 C-138.56556399 89.08935684 -127.40948253 84.82065188 -120.5625 76.1875 C-119.31867165 71.35038976 -120.40790837 67.23352424 -122.5 62.875 C-129.41448353 54.92334394 -139.68247942 50.5596252 -150 49 C-166.45235409 47.84106793 -166.45235409 47.84106793 -181 54 C-182.17264228 56.96609518 -182.38880964 58.88131962 -181.33203125 61.921875 C-179.07976197 66.6654299 -176.07388625 70.76302165 -173 75 C-171.09051724 80.72844829 -171.08814285 86.77562505 -173.625 92.3125 C-176.3753728 97.10628358 -179.76856081 99.95866171 -184.8125 102.3125 C-191.50083676 103.75508244 -197.08455834 103.76331923 -203.14453125 100.328125 C-207.53233987 97.18737778 -210.29703343 93.6198795 -212.4375 88.6875 C-213.92612183 78.92875687 -211.3789456 71.8696569 -205.875 63.9375 C-194.87360099 51.59446697 -177.30162759 45.93357191 -161.26391602 45.0065918 C-147.63157084 44.5778209 -134.58359092 48.11615718 -123.5625 56.375 C-116.12025177 63.99876648 -113.69947169 72.10164165 -113.71289062 82.53393555 C-113.70605759 83.35758606 -113.69922455 84.18123657 -113.69218445 85.02984619 C-113.67866284 86.80637095 -113.66956711 88.58293388 -113.66447449 90.35950279 C-113.65614696 93.17151149 -113.63560935 95.98320142 -113.61193848 98.79512024 C-113.55568793 105.77354183 -113.52028587 112.75204058 -113.48431396 119.73059082 C-113.45307343 125.63968518 -113.41390086 131.54862247 -113.36405945 137.4575901 C-113.34399901 140.2273379 -113.33567533 142.99696414 -113.32775879 145.76676941 C-113.31478837 147.46260015 -113.30126835 149.15842681 -113.28710938 150.85424805 C-113.28809128 151.6236824 -113.28907318 152.39311676 -113.29008484 153.18586731 C-113.24640404 156.93763034 -113.09755397 159.81563539 -111 163 C-110.5153125 161.92621094 -110.030625 160.85242188 -109.53125 159.74609375 C-104.64934877 149.26291794 -100.01727398 141.68234144 -89 137 C-90.82332589 132.20500355 -93.16864669 127.76083613 -95.5625 123.23046875 C-101.09026985 110.8080077 -100.9493547 94.56121412 -96.32421875 81.88671875 C-88.79104815 65.46485128 -76.9257896 54.55872806 -60.16015625 48.00390625 C-46.90119808 43.79185155 -33.33098128 44.55233243 -20 48 C-20.50789062 47.50113281 -21.01578125 47.00226563 -21.5390625 46.48828125 C-30.31623487 37.33306587 -35.3438892 26.55047853 -35.45532227 13.8425293 C-35.30137483 7.48626197 -33.51800897 3.40902191 -29 -1 C-19.88742968 -8.13418335 -8.66011863 -7.34738571 0 0 Z M-50 52 C-64.42298318 73.38822871 -62.11440732 108.09530414 -57.6875 132.4375 C-55.78798595 142.07776772 -53.55979054 149.47108998 -46 156 C-34.00809423 152.44875991 -34.00809423 152.44875991 -25.33984375 144.140625 C-21.07658536 130.84833648 -20.61918265 116.65434285 -20.6875 102.8125 C-20.69023422 101.66187576 -20.69023422 101.66187576 -20.69302368 100.48800659 C-20.36521257 73.91351397 -20.36521257 73.91351397 -31.625 50.8125 C-37.39440761 46.40953103 -45.01704092 46.51610853 -50 52 Z M-170.875 108.1875 C-178.94849933 116.73846434 -181.29834373 126.50725696 -181.14453125 137.9453125 C-180.68708336 147.61353553 -177.46956983 155.92772526 -170.1875 162.5625 C-166.19228295 164.36426455 -162.39753322 165.23986545 -158 165 C-156.02 164.01 -156.02 164.01 -154 163 C-154 141.55 -154 120.1 -154 98 C-159.6834918 98 -166.97002008 104.53233361 -170.875 108.1875 Z M-88.4375 141.25 C-92.77022846 145.89975737 -93.45408239 149.28993161 -93.31640625 155.53125 C-92.68825057 160.43241527 -89.97590073 163.1193091 -86.4375 166.3125 C-81.82863728 169.50325111 -77.4178215 169.58836071 -72 169 C-64.5893069 167.01518555 -57.75532022 163.57548402 -51 160 C-51 159.34 -51 158.68 -51 158 C-51.81082031 157.78085938 -52.62164063 157.56171875 -53.45703125 157.3359375 C-65.34817745 153.93055687 -74.13623292 149.32719693 -83.1015625 140.7578125 C-85.6928055 138.33974202 -85.6928055 138.33974202 -88.4375 141.25 Z " fill="#00B960" transform="translate(815,42)"/>
<path d="M0 0 C0.825 0.7425 1.65 1.485 2.5 2.25 C3.19222656 1.86328125 3.88445312 1.4765625 4.59765625 1.078125 C21.56953933 -7.9556573 39.84569312 -11.39116497 58.5 -5.75 C66.34100008 -2.19935845 71.37250286 3.61442235 74.39955139 11.63284302 C76.93314304 20.6725862 76.91222885 29.50793209 76.88012505 38.81780624 C76.87091647 41.73586435 76.88134565 44.65329339 76.89674377 47.57131958 C76.93659645 55.85808523 76.93803812 64.14479496 76.93579102 72.43164062 C76.93573991 77.52250732 76.95489815 82.61302829 76.98512459 87.7038002 C76.99592468 90.57228363 76.98384141 93.44010149 76.97129822 96.30856323 C76.98020166 98.06883398 76.9902757 99.82909933 77.00170898 101.58935547 C76.99196548 102.381147 76.98222198 103.17293854 76.97218323 103.98872375 C77.03925357 109.16932589 78.05355443 112.15327566 81.5 116.25 C84.10437233 117.66190564 84.10437233 117.66190564 86.5 118.25 C86.5 119.24 86.5 120.23 86.5 121.25 C66.7 121.25 46.9 121.25 26.5 121.25 C26.5 120.26 26.5 119.27 26.5 118.25 C27.428125 117.8375 28.35625 117.425 29.3125 117 C32.5876307 115.20188903 33.72404255 114.45017616 35.5 111.25 C35.7883306 108.52452733 35.90712023 106.02762194 35.88476562 103.30371094 C35.8901384 102.50643082 35.89551117 101.7091507 35.90104675 100.88771057 C35.9108199 99.15861177 35.91377029 97.42946395 35.91069031 95.70034027 C35.90620816 92.95878275 35.92022537 90.2178694 35.93908691 87.47637939 C35.97587122 81.65093016 35.98957048 75.82554825 36 70 C36.0120962 63.26130561 36.03376673 56.52292449 36.08000183 49.78437042 C36.09352204 47.09226509 36.08940934 44.40056074 36.08459473 41.70843506 C36.09394235 40.04357402 36.10411293 38.37871733 36.11523438 36.71386719 C36.10601204 35.60226982 36.10601204 35.60226982 36.09660339 34.46821594 C36.18344714 27.01911227 38.25845104 20.93293239 43.5625 15.5 C48.28548651 10.62880726 48.28548651 10.62880726 49.5 4.1875 C48.75491906 1.0149639 48.75491906 1.0149639 45.75 -0.5625 C33.69822054 -4.9660348 21.33538994 -2.48077806 9.76171875 2.40625 C7.97662481 3.29404095 6.23099315 4.26086106 4.5 5.25 C4.7829039 5.87415802 5.0658078 6.49831604 5.35728455 7.14138794 C9.05359489 16.46984489 9.05902684 25.27275422 9.01642036 35.18819809 C9.0036654 38.17355879 9.0151909 41.15801193 9.03245544 44.14334106 C9.05900466 49.3984119 9.06475631 54.65325559 9.06335449 59.90838623 C9.06111494 68.33886561 9.07528089 76.76906628 9.11894035 85.19943619 C9.12875454 88.13431888 9.12007873 91.06875827 9.11024475 94.00363159 C9.1163887 95.80434458 9.12330035 97.60505516 9.13110352 99.40576172 C9.12338425 100.21625473 9.11566498 101.02674774 9.10771179 101.86180115 C9.15116261 106.72670595 9.85042596 110.01497193 12.5 114.25 C14.87482847 116.4021883 16.43511719 117.2283724 19.5 118.25 C19.5 119.24 19.5 120.23 19.5 121.25 C-0.63 121.25 -20.76 121.25 -41.5 121.25 C-40.5 118.25 -40.5 118.25 -37.0625 116.375 C-36.44503906 116.08882813 -35.82757813 115.80265625 -35.19140625 115.5078125 C-32.772538 113.70902364 -32.39697528 112.13247322 -31.5 109.25 C-31.31488595 106.52841021 -31.22958485 103.90996311 -31.24462891 101.19018555 C-31.24100845 100.3927594 -31.237388 99.59533325 -31.23365784 98.77374268 C-31.22678104 97.0473768 -31.22425518 95.32098926 -31.22560501 93.59461021 C-31.22657292 90.85726187 -31.21359618 88.12030334 -31.19662476 85.38301086 C-31.15043667 77.60213237 -31.12575631 69.82129413 -31.11914062 62.0402832 C-31.11411292 57.27515096 -31.08979911 52.51042598 -31.05381393 47.7454319 C-31.04404502 45.93507144 -31.04166805 44.12465475 -31.04698563 42.31427574 C-31.05409346 39.77507697 -31.03669858 37.23708312 -31.01416016 34.69799805 C-31.02641884 33.58875725 -31.02641884 33.58875725 -31.03892517 32.45710754 C-30.92247556 25.03912351 -27.8644992 19.24480392 -22.8125 13.875 C-20.11144308 10.97150841 -18.67258322 9.38411832 -18.0625 5.375 C-18.18328091 2.00781888 -18.18328091 2.00781888 -21.1875 -0.0625 C-31.1919248 -5.15909377 -42.1150977 -2.48418925 -52.5 0.25 C-54.17249998 0.90189419 -55.84030544 1.5661607 -57.5 2.25 C-57.59352385 16.22776033 -57.6637524 30.20547201 -57.70724869 44.18348122 C-57.72812459 50.67402624 -57.75644303 57.16436109 -57.80175781 63.65478516 C-57.84521434 69.91823773 -57.86913708 76.18148811 -57.87950897 82.4450798 C-57.8869006 84.83490558 -57.9013346 87.22472027 -57.92292023 89.61445999 C-57.95195063 92.96147844 -57.95595601 96.30766109 -57.95410156 99.65478516 C-57.96848267 100.64309326 -57.98286377 101.63140137 -57.99768066 102.6496582 C-57.96269635 108.48377264 -57.41538804 111.82270945 -53.5 116.25 C-50.89562767 117.66190564 -50.89562767 117.66190564 -48.5 118.25 C-48.5 119.24 -48.5 120.23 -48.5 121.25 C-68.3 121.25 -88.1 121.25 -108.5 121.25 C-108.5 120.26 -108.5 119.27 -108.5 118.25 C-107.571875 117.8375 -106.64375 117.425 -105.6875 117 C-102.36015262 115.17322105 -101.25041039 114.53640871 -99.5 111.25 C-99.05350924 108.06634288 -99.09045942 104.90590449 -99.11181641 101.69555664 C-99.10393097 100.24369209 -99.10393097 100.24369209 -99.09588623 98.76249695 C-99.08267791 95.56155276 -99.09142814 92.36110554 -99.1015625 89.16015625 C-99.09954184 86.93582565 -99.09663048 84.71149569 -99.09286499 82.48716736 C-99.08844036 77.82414445 -99.09487668 73.1612939 -99.10888672 68.49829102 C-99.12596858 62.52157126 -99.1161444 56.54525594 -99.09816933 50.56855106 C-99.08732686 45.97461401 -99.09078017 41.38077276 -99.0985527 36.78683281 C-99.10055394 34.58321523 -99.09809814 32.37958894 -99.09111404 30.17598152 C-99.08349326 27.09503278 -99.09511351 24.01473795 -99.11181641 20.93383789 C-99.10574371 20.0230246 -99.09967102 19.1122113 -99.09341431 18.17379761 C-99.14128747 13.40594352 -99.31443974 10.06904478 -102.5 6.25 C-105.56680799 4.42370206 -105.56680799 4.42370206 -108.5 3.25 C-108.5 2.26 -108.5 1.27 -108.5 0.25 C-102.77164953 -0.61005315 -97.04248422 -1.46437608 -91.3125 -2.31347656 C-89.36467613 -2.60293044 -87.41708119 -2.89392931 -85.46972656 -3.18652344 C-82.6653065 -3.60761613 -79.86010122 -4.0230856 -77.0546875 -4.4375 C-75.75590164 -4.63436401 -75.75590164 -4.63436401 -74.43087769 -4.83520508 C-65.80008902 -6.09894502 -65.80008902 -6.09894502 -61.5 -5.75 C-59.125 -3.75 -59.125 -3.75 -57.5 -1.75 C-56.64019531 -2.08773437 -55.78039062 -2.42546875 -54.89453125 -2.7734375 C-37.03143434 -9.51349369 -15.90735515 -13.08926892 0 0 Z " fill="#00BA60" transform="translate(507.5,95.75)"/>
<path d="M0 0 C20.4215765 -0.88621936 41.06214752 8.35113091 56.20703125 21.453125 C64.65935816 29.62252884 71.0232659 39.26041217 71.5078125 51.22265625 C71.16306967 59.90795144 67.79220248 66.12659665 61.9375 72.43359375 C56.00133492 77.74489934 49.03735893 79.51879434 41.1796875 79.37109375 C33.69659626 78.6443187 27.37210084 75.36047071 22.0078125 70.16015625 C16.91048706 63.79496814 14.44464757 56.71047929 14.70703125 48.53515625 C15.80920235 39.83229876 20.76842522 33.39683389 26.08203125 26.7265625 C29.20831521 22.56029767 29.27630357 19.26148656 29.0078125 14.16015625 C27.40759712 9.90087651 25.1865732 8.85475414 21.19921875 7.04296875 C13.61270407 3.98672576 6.14341815 3.32000874 -1.9921875 4.16015625 C-5.51031097 5.53282849 -5.51031097 5.53282849 -7.9921875 8.16015625 C-8.4665625 8.588125 -8.9409375 9.01609375 -9.4296875 9.45703125 C-26.41444116 26.61870943 -29.12015038 59.51444235 -29.9921875 82.16015625 C-30.0334375 83.17980469 -30.0746875 84.19945313 -30.1171875 85.25 C-30.64231554 112.32691434 -28.31914392 146.36753903 -11.9921875 169.16015625 C-11.3115625 170.12953125 -10.6309375 171.09890625 -9.9296875 172.09765625 C-6.56366374 175.68084283 -3.16315645 177.63191617 1.7890625 178.1640625 C8.22421027 178.15273301 14.81038371 177.21367629 20.71289062 174.61230469 C21.80021484 174.1330957 22.88753906 173.65388672 24.0078125 173.16015625 C24.08400283 166.29173911 24.13647135 159.42343135 24.17260742 152.5546875 C24.18767511 150.21903409 24.20813299 147.88340888 24.23413086 145.54785156 C24.27060208 142.18677806 24.2875594 138.82607933 24.30078125 135.46484375 C24.31626511 134.42399628 24.33174896 133.3831488 24.34770203 132.3107605 C24.34896807 126.83204258 24.14624725 122.86898913 21.0078125 118.16015625 C17.30632622 114.45866997 13.97146402 113.32807426 9.0078125 112.16015625 C9.0078125 111.50015625 9.0078125 110.84015625 9.0078125 110.16015625 C34.4178125 110.16015625 59.8278125 110.16015625 86.0078125 110.16015625 C86.0078125 110.82015625 86.0078125 111.48015625 86.0078125 112.16015625 C85.40453125 112.39089844 84.80125 112.62164062 84.1796875 112.859375 C79.24163328 114.87441971 75.90028704 116.45988512 73.0078125 121.16015625 C71.97514768 124.25815071 71.85271725 126.48274898 71.80249023 129.7331543 C71.78254501 130.87411057 71.76259979 132.01506683 71.74205017 133.19059753 C71.72533768 134.4219191 71.70862518 135.65324066 71.69140625 136.921875 C71.6602346 138.81326958 71.6602346 138.81326958 71.62843323 140.74287415 C71.57409128 144.09161083 71.52385084 147.4403583 71.47558594 150.78918457 C71.42530893 154.20781854 71.36965526 157.62636451 71.31445312 161.04492188 C71.2072775 167.74992987 71.10550738 174.45500378 71.0078125 181.16015625 C70.22705353 180.84735718 69.44629456 180.53455811 68.64187622 180.21228027 C61.7115807 177.44411246 55.64388856 175.60384664 48.1328125 175.66015625 C47.29202148 175.66080078 46.45123047 175.66144531 45.58496094 175.66210938 C36.78664316 175.8586844 28.34912083 177.64090364 19.74560547 179.36328125 C-0.61174531 183.3563981 -20.88971295 181.37002781 -38.69921875 169.828125 C-59.95909061 155.40469481 -72.58480335 135.01668019 -77.9921875 110.16015625 C-82.60048673 85.46874902 -78.56274784 58.96931028 -64.69677734 37.88110352 C-52.42146472 20.0559221 -35.20506292 6.15435701 -13.6640625 1.61328125 C-9.10011386 0.83927826 -4.60870947 0.37050409 0 0 Z " fill="#00BB61" transform="translate(91.9921875,35.83984375)"/>
<path d="M0 0 C5.07450491 1.49741278 9.34372819 2.13412879 14.64526367 1.72851562 C15.63526367 1.06851563 16.62526367 0.40851563 17.64526367 -0.27148438 C18.63526367 -0.27148438 19.62526367 -0.27148438 20.64526367 -0.27148438 C20.64526367 13.91851562 20.64526367 28.10851562 20.64526367 42.72851562 C19.98526367 42.72851562 19.32526367 42.72851562 18.64526367 42.72851562 C18.46987061 42.14996826 18.29447754 41.5714209 18.11376953 40.9753418 C12.96527565 24.21229935 8.35908933 10.66332962 -7.79223633 1.85351562 C-13.56658907 0.03003581 -19.44317837 -1.32287803 -25.29223633 0.85351562 C-28.70214846 2.94121693 -29.87900711 4.03919258 -31.35473633 7.72851562 C-32.83364583 14.06669921 -32.46805203 18.94253814 -29.35473633 24.72851562 C-22.15683393 34.24785105 -12.92882941 41.35368761 -3.43286133 48.41601562 C26.94606188 71.23875996 26.94606188 71.23875996 29.77026367 89.97851562 C30.01628482 97.87708946 27.41627691 104.78752895 22.42651367 110.85351562 C12.69737335 121.09471596 -0.52095251 126.45392807 -14.55395508 127.06445312 C-31.72965343 127.34670839 -47.63627342 125.10284682 -60.79223633 112.91601562 C-66.98740623 106.18656003 -69.07876787 99.73031765 -68.74145508 90.59960938 C-67.99973129 85.09287213 -65.9460877 81.3640712 -62.10473633 77.41601562 C-55.93757588 73.63162171 -51.02304703 72.11518552 -43.74926758 73.15429688 C-36.90613495 74.7953091 -32.87365351 78.75127797 -29.16723633 84.60351562 C-27.15677538 89.86164426 -26.98159763 94.9095208 -28.27661133 100.33007812 C-30.10505682 104.39770686 -33.25774836 107.2293299 -36.45629883 110.27148438 C-38.81458791 113.32367333 -38.81090268 114.95858913 -38.35473633 118.72851562 C-36.56442804 121.67725869 -33.85882594 122.55408462 -30.58129883 123.37695312 C-24.61705702 124.31867552 -18.67823189 124.48893236 -12.91723633 122.60351562 C-8.57831336 119.42869394 -5.3429973 116.26238479 -4.35473633 110.85351562 C-3.94584315 103.65699575 -6.8456257 99.02611664 -11.41723633 93.79101562 C-18.46912647 86.35303166 -26.08977644 79.85629254 -34.24511719 73.67211914 C-65.60757423 49.76358135 -65.60757423 49.76358135 -68.35473633 33.72851562 C-69.52363952 18.1686896 -69.52363952 18.1686896 -64.35473633 11.72851562 C-47.74096812 -6.64314092 -22.08755782 -6.6503129 0 0 Z " fill="#00B960" transform="translate(303.354736328125,91.271484375)"/>
<path d="M0 0 C0 7.59 0 15.18 0 23 C5.28 23 10.56 23 16 23 C16 23.66 16 24.32 16 25 C10.72 25 5.44 25 0 25 C0.06118257 38.73446253 0.13826845 52.46873459 0.23571491 66.20299053 C0.28046129 72.5802198 0.31970818 78.95738454 0.34643555 85.3347168 C0.37242566 91.48805183 0.41279807 97.64113914 0.46318626 103.79432106 C0.47988396 106.14304335 0.49138011 108.49180852 0.49761391 110.84058189 C0.50722318 114.12795417 0.53524548 117.4146885 0.56762695 120.7019043 C0.56619186 121.6751062 0.56475677 122.64830811 0.5632782 123.65100098 C0.63178667 128.56190318 0.739613 132.05054467 4 136 C8.87580094 139.6568507 13.05526213 139.0371475 18.8046875 138.32421875 C19.89136719 138.16373047 19.89136719 138.16373047 21 138 C21 138.99 21 139.98 21 141 C11.22785905 149.27212835 -1.85854322 151.94122621 -14.32421875 151.3828125 C-19.25233067 150.86957661 -22.88205866 149.72824271 -27 147 C-27.94939453 146.38125 -27.94939453 146.38125 -28.91796875 145.75 C-34.97254704 141.20583889 -38.45060716 134.33913801 -40 127 C-40.08551559 125.55085662 -40.12204228 124.09833076 -40.12025452 122.64666748 C-40.12162918 121.78292511 -40.12300385 120.91918274 -40.12442017 120.02926636 C-40.12082489 119.08987213 -40.11722961 118.15047791 -40.11352539 117.18261719 C-40.11367142 116.18716888 -40.11381744 115.19172058 -40.1139679 114.16610718 C-40.11327132 110.87634094 -40.1054908 107.58663135 -40.09765625 104.296875 C-40.09579117 102.01572704 -40.09436769 99.73457868 -40.09336853 97.45343018 C-40.08955048 91.4496144 -40.07972624 85.44582282 -40.06866455 79.4420166 C-40.05843515 73.3155144 -40.05386763 67.18900828 -40.04882812 61.0625 C-40.03810336 49.04165604 -40.02103545 37.02083003 -40 25 C-43.3 25 -46.6 25 -50 25 C-50 24.34 -50 23.68 -50 23 C-48.36804688 22.76216797 -48.36804688 22.76216797 -46.703125 22.51953125 C-29.78441241 19.90194098 -16.10862502 14.32166002 -4.4375 1.25 C-3 0 -3 0 0 0 Z " fill="#00B960" transform="translate(383,67)"/>
<path d="M0 0 C2.44155935 2.44155935 2.25151102 3.05966463 2.25828552 6.40739441 C2.26852753 7.79730087 2.26852753 7.79730087 2.27897644 9.21528625 C2.27514702 10.74490242 2.27514702 10.74490242 2.27124023 12.30541992 C2.27646698 13.37711426 2.28169373 14.44880859 2.28707886 15.55297852 C2.29734167 17.88672096 2.30310321 20.22048644 2.30496025 22.55425072 C2.30861185 26.24878576 2.3253069 29.94304943 2.34571838 33.63752747 C2.40123745 44.14412507 2.43178887 54.65076253 2.45629883 65.1574707 C2.47218413 71.57892149 2.50241898 78.00018161 2.54106331 84.42153358 C2.55271031 86.86909267 2.55864363 89.31668589 2.55874443 91.76427269 C2.55893672 95.19225286 2.57722317 98.61970876 2.59936523 102.04760742 C2.59478806 103.05723038 2.59021088 104.06685333 2.585495 105.10707092 C2.64430813 110.84159718 3.23796381 114.93729869 6 120 C8.36775923 122.21977428 9.90022776 122.96674259 13 124 C13 124.99 13 125.98 13 127 C-7.13 127 -27.26 127 -48 127 C-47 124 -47 124 -43.5625 122.125 C-42.94503906 121.83882813 -42.32757813 121.55265625 -41.69140625 121.2578125 C-39.24219316 119.43645773 -38.89197389 117.93995774 -38 115 C-37.70249866 111.87432947 -37.70623914 108.76136051 -37.70947266 105.62329102 C-37.70275543 104.68610229 -37.69603821 103.74891357 -37.68911743 102.7833252 C-37.67014379 99.6901314 -37.66621376 96.59715459 -37.6640625 93.50390625 C-37.65763491 91.35066133 -37.65090658 89.19741728 -37.64389038 87.04417419 C-37.63191976 82.53260269 -37.62820942 78.02110775 -37.62939453 73.50952148 C-37.62959788 67.73128388 -37.60227767 61.9535372 -37.56785011 56.17541599 C-37.5456048 51.72899626 -37.54155624 47.2826952 -37.54261398 42.83622551 C-37.54025516 40.70598595 -37.53141583 38.57574326 -37.51594925 36.44555855 C-37.49633451 33.46539078 -37.50210951 30.48628876 -37.51416016 27.50610352 C-37.50292114 26.62850876 -37.49168213 25.750914 -37.48010254 24.84672546 C-37.53570002 19.4308099 -38.33288513 16.25833329 -42 12 C-45.10014929 10.11431306 -45.10014929 10.11431306 -48 9 C-48 8.01 -48 7.02 -48 6 C-42.29010061 5.13899251 -36.57924917 4.28471319 -30.86743164 3.43652344 C-28.92640342 3.14733433 -26.98564299 2.85634166 -25.04516602 2.56347656 C-22.248252 2.14167984 -19.45042397 1.72648082 -16.65234375 1.3125 C-15.36129982 1.11563599 -15.36129982 1.11563599 -14.04417419 0.91479492 C-9.33482754 0.22517805 -4.77227324 -0.32696839 0 0 Z " fill="#00BD62" transform="translate(222,90)"/>
<path d="M0 0 C4.71422465 3.96423437 9.23974194 8.49149776 10.0859375 14.828125 C10.18843584 22.00300896 9.33414649 27.46322486 4.32421875 32.84375 C-1.26358999 37.8106911 -6.36185898 38.71789967 -13.59765625 38.5625 C-19.70752541 37.98660659 -23.31329434 34.78119291 -27.25 30.3125 C-30.59037738 26.01772908 -31.38913768 21.6606045 -31.25 16.3125 C-30.11269042 10.14868828 -27.71124228 5.66999246 -23.25 1.3125 C-15.76642642 -3.20882571 -7.86971791 -4.08619969 0 0 Z " fill="#00B960" transform="translate(215.25,38.6875)"/>
<path d="M0 0 C0.33 0 0.66 0 1 0 C3.47989857 13.36725816 2.56041233 26.39073741 -5 38 C-5.98666457 39.34323148 -6.98489392 40.67813109 -8 42 C-8.86625 43.299375 -8.86625 43.299375 -9.75 44.625 C-16.361064 51.60334534 -24.58544711 56.05117322 -34 58 C-34.99 57.67 -35.98 57.34 -37 57 C-37.33 56.34 -37.66 55.68 -38 55 C-36.89205078 54.79697266 -36.89205078 54.79697266 -35.76171875 54.58984375 C-24.34851579 52.16798238 -15.72669725 47.26805295 -8.72265625 37.8046875 C-2.13937468 27.08632884 -0.05372431 16.33037358 -1.94140625 4.03125 C-1.96074219 3.3609375 -1.98007812 2.690625 -2 2 C-1.34 1.34 -0.68 0.68 0 0 Z " fill="#008D49" transform="translate(843,221)"/>
<path d="M0 0 C9.08203125 -0.48828125 9.08203125 -0.48828125 12 0 C13.9453125 2.296875 13.9453125 2.296875 15 5 C14.38242027 7.34680297 13.7166207 9.68152126 13 12 C13.73121406 14.3892395 13.73121406 14.3892395 15 16 C12.125 16.1875 12.125 16.1875 9 16 C8.34 15.01 7.68 14.02 7 13 C6.01 12.67 5.02 12.34 4 12 C4 13.32 4 14.64 4 16 C2.68 16 1.36 16 0 16 C0 10.72 0 5.44 0 0 Z M4 4 C4 5.32 4 6.64 4 8 C5.65 8 7.3 8 9 8 C9 6.68 9 5.36 9 4 C7.35 4 5.7 4 4 4 Z " fill="#73C64F" transform="translate(215,221)"/>
<path d="M0 0 C0.66 0.33 1.32 0.66 2 1 C1.67 2.32 1.34 3.64 1 5 C-1.97 5 -4.94 5 -8 5 C-8 6.98 -8 8.96 -8 11 C-5.03 11.495 -5.03 11.495 -2 12 C-2 10.35 -2 8.7 -2 7 C-0.68 7 0.64 7 2 7 C2 9.64 2 12.28 2 15 C-1.41205596 17.09972674 -4.0300247 17.33083127 -8 17 C-11.34265205 15.79293121 -11.94704566 15.07943151 -14 12 C-14.67540029 4.90829694 -14.67540029 4.90829694 -12.1875 1.5625 C-7.93368941 -1.47593614 -4.96857115 -0.90337657 0 0 Z " fill="#69B548" transform="translate(357,221)"/>
<path d="M0 0 C10.625 -0.25 10.625 -0.25 14 2 C14.27028374 5.71640139 14.180933 8.457201 13 12 C13.87483915 14.16715557 13.87483915 14.16715557 15 16 C12.125 16.1875 12.125 16.1875 9 16 C8.34 15.01 7.68 14.02 7 13 C6.01 12.67 5.02 12.34 4 12 C4 13.32 4 14.64 4 16 C2.68 16 1.36 16 0 16 C0 10.72 0 5.44 0 0 Z M4 4 C4 5.32 4 6.64 4 8 C5.65 8 7.3 8 9 8 C9 6.68 9 5.36 9 4 C7.35 4 5.7 4 4 4 Z " fill="#74C850" transform="translate(319,221)"/>
<path d="M0 0 C1.32 0 2.64 0 4 0 C4 1.98 4 3.96 4 6 C5.98 6 7.96 6 10 6 C10 4.02 10 2.04 10 0 C11.65 0 13.3 0 15 0 C15 5.28 15 10.56 15 16 C13.35 16 11.7 16 10 16 C10 14.02 10 12.04 10 10 C8.02 10 6.04 10 4 10 C4 11.98 4 13.96 4 16 C2.68 16 1.36 16 0 16 C0 10.72 0 5.44 0 0 Z " fill="#77CC52" transform="translate(266,221)"/>
<path d="M0 0 C-0.33 1.32 -0.66 2.64 -1 4 C-2.98 4 -4.96 4 -7 4 C-4.37352812 5.75098126 -1.71224618 7.38731308 1 9 C0.51984877 14.52173913 0.51984877 14.52173913 -1.5625 16.4375 C-5.22674621 17.28309528 -8.29896112 16.61683981 -12 16 C-12.33 14.68 -12.66 13.36 -13 12 C-10.13822943 10.56911472 -8.06624227 11.40008303 -5 12 C-5.5775 11.731875 -6.155 11.46375 -6.75 11.1875 C-9.12367963 9.93472464 -11.06206571 8.86872235 -13 7 C-13.5625 4.5 -13.5625 4.5 -13 2 C-8.81657945 -1.92195676 -5.23114257 -0.97529777 0 0 Z " fill="#6BB94A" transform="translate(128,221)"/>
<path d="M0 0 C4.29 0 8.58 0 13 0 C13 1.32 13 2.64 13 4 C10.36 4 7.72 4 5 4 C5 4.66 5 5.32 5 6 C7.31 6 9.62 6 12 6 C12 7.32 12 8.64 12 10 C9.69 10 7.38 10 5 10 C5 10.99 5 11.98 5 13 C7.64 13 10.28 13 13 13 C13 13.99 13 14.98 13 16 C8.71 16 4.42 16 0 16 C0 10.72 0 5.44 0 0 Z " fill="#6CBB4B" transform="translate(370,221)"/>
<path d="M0 0 C1.65 0 3.3 0 5 0 C6.17154293 2.28929053 7.33738074 4.58118362 8.5 6.875 C9.00080078 7.85146484 9.00080078 7.85146484 9.51171875 8.84765625 C12 13.7734375 12 13.7734375 12 16 C10.35 16 8.7 16 7 16 C6.67 15.34 6.34 14.68 6 14 C3.67843403 13.59270772 1.3431213 13.25561323 -1 13 C-1 13.99 -1 14.98 -1 16 C-2.98 16 -4.96 16 -7 16 C-4.69 10.72 -2.38 5.44 0 0 Z M2 6 C1.67 6.99 1.34 7.98 1 9 C1.99 9 2.98 9 4 9 C3.67 8.01 3.34 7.02 3 6 C2.67 6 2.34 6 2 6 Z " fill="#6FC04D" transform="translate(297,221)"/>
<path d="M0 0 C4.29 0 8.58 0 13 0 C13 1.32 13 2.64 13 4 C10.36 4 7.72 4 5 4 C5 4.66 5 5.32 5 6 C7.31 6 9.62 6 12 6 C12 7.32 12 8.64 12 10 C9.69 10 7.38 10 5 10 C5 10.99 5 11.98 5 13 C7.64 13 10.28 13 13 13 C13 13.99 13 14.98 13 16 C8.71 16 4.42 16 0 16 C0 10.72 0 5.44 0 0 Z " fill="#70C14D" transform="translate(191,221)"/>
<path d="M0 0 C1.65 0 3.3 0 5 0 C5 3.96 5 7.92 5 12 C6.65 12 8.3 12 10 12 C10.33 8.04 10.66 4.08 11 0 C12.32 0 13.64 0 15 0 C15.05402274 2.10388569 15.09280256 4.20816714 15.125 6.3125 C15.14820313 7.48425781 15.17140625 8.65601563 15.1953125 9.86328125 C15 13 15 13 13 16 C6.17956312 17.67715661 6.17956312 17.67715661 2.2578125 15.42578125 C0 13 0 13 -0.48828125 9.765625 C-0.43027344 8.60546875 -0.37226563 7.4453125 -0.3125 6.25 C-0.26738281 5.07953125 -0.22226563 3.9090625 -0.17578125 2.703125 C-0.11777344 1.81109375 -0.05976563 0.9190625 0 0 Z " fill="#72C54E" transform="translate(139,221)"/>
<path d="M0 0 C0.66 0.33 1.32 0.66 2 1 C1.67 2.32 1.34 3.64 1 5 C0.071875 4.79375 -0.85625 4.5875 -1.8125 4.375 C-5.15173402 3.63307034 -5.15173402 3.63307034 -8 6 C-7.67 7.65 -7.34 9.3 -7 11 C-3.71023192 12.09658936 -2.28696233 11.79953138 1 11 C1.33 12.32 1.66 13.64 2 15 C-1.34246999 17.36758291 -4.20940236 17.22479738 -8.09375 16.6015625 C-11.30843616 15.58709187 -12.45017237 13.9059268 -14 11 C-14.65422668 7.07463991 -14.35343315 5.54843075 -12.1875 2.1875 C-8.24673956 -1.75326044 -5.18563686 -0.94284307 0 0 Z " fill="#68B448" transform="translate(253,221)"/>
<path d="M0 0 C10.625 -0.25 10.625 -0.25 14 2 C14.37033222 5.39471203 14.60921702 7.88907484 12.9375 10.9375 C9.98831309 12.55479605 7.29132441 12.18630138 4 12 C4 13.32 4 14.64 4 16 C2.68 16 1.36 16 0 16 C0 10.72 0 5.44 0 0 Z M4 4 C4 5.32 4 6.64 4 8 C5.65 8 7.3 8 9 8 C9 6.68 9 5.36 9 4 C7.35 4 5.7 4 4 4 Z " fill="#75CA51" transform="translate(166,221)"/>
<path d="M0 0 C-0.66 0.99 -1.32 1.98 -2 3 C-2.68964844 2.66226563 -3.37929688 2.32453125 -4.08984375 1.9765625 C-18.3833607 -4.80746612 -33.61141007 -6.23469797 -49 -2 C-48.67 -3.32 -48.34 -4.64 -48 -6 C-30.98643212 -9.17202113 -15.56015778 -8.09220687 0 0 Z " fill="#00954D" transform="translate(687,95)"/>
<path d="M0 0 C-2.40062097 3.60093146 -4.03825994 4.10185164 -8 5.6875 C-9.60875 6.34298828 -9.60875 6.34298828 -11.25 7.01171875 C-14 8 -14 8 -16 8 C-15.8671875 6.17578125 -15.8671875 6.17578125 -15 4 C-12.3828125 2.48046875 -12.3828125 2.48046875 -9.125 1.1875 C-7.52011719 0.52814453 -7.52011719 0.52814453 -5.8828125 -0.14453125 C-3 -1 -3 -1 0 0 Z " fill="#00974E" transform="translate(528,92)"/>
<path d="M0 0 C0.66 0.33 1.32 0.66 2 1 C2 1.99 2 2.98 2 4 C0.10507994 4.33848652 -1.79098466 4.67056911 -3.6875 5 C-4.74324219 5.185625 -5.79898438 5.37125 -6.88671875 5.5625 C-9.64904062 5.95068074 -12.21742043 6.08259976 -15 6 C-15.33 5.01 -15.66 4.02 -16 3 C-14.64455078 2.80083984 -14.64455078 2.80083984 -13.26171875 2.59765625 C-12.08222656 2.42105469 -10.90273437 2.24445313 -9.6875 2.0625 C-7.92986328 1.80146484 -7.92986328 1.80146484 -6.13671875 1.53515625 C-2.98358597 1.07906969 -2.98358597 1.07906969 0 0 Z " fill="#008042" transform="translate(112,211)"/>
<path d="M0 0 C5.45769811 -0.11138159 10.61509359 0.08342019 16 1 C16 1.99 16 2.98 16 4 C13.89505699 3.91291962 11.79097858 3.80474307 9.6875 3.6875 C7.92986328 3.60048828 7.92986328 3.60048828 6.13671875 3.51171875 C2.9016314 2.98395232 1.91315119 2.57619276 0 0 Z " fill="#008143" transform="translate(90,36)"/>
<path d="M0 0 C0.33 0.66 0.66 1.32 1 2 C-4.445 3.485 -4.445 3.485 -10 5 C-10.33 4.01 -10.66 3.02 -11 2 C-9.73392393 1.46770674 -8.46189588 0.94955456 -7.1875 0.4375 C-6.47980469 0.14746094 -5.77210938 -0.14257812 -5.04296875 -0.44140625 C-3 -1 -3 -1 0 0 Z " fill="#00964D" transform="translate(461,92)"/>
<path d="M0 0 C0 0.66 0 1.32 0 2 C-3.3 2.66 -6.6 3.32 -10 4 C-9.67 2.68 -9.34 1.36 -9 0 C-5.62182575 -0.84454356 -3.32534757 -1.10844919 0 0 Z " fill="#008D49" transform="translate(648,89)"/>
<path d="M0 0 C3.63 0 7.26 0 11 0 C10.67 0.66 10.34 1.32 10 2 C7.93359375 2.4140625 7.93359375 2.4140625 5.4375 2.625 C4.61121094 2.69976562 3.78492187 2.77453125 2.93359375 2.8515625 C1.97646484 2.92503906 1.97646484 2.92503906 1 3 C0.67 2.01 0.34 1.02 0 0 Z " fill="#008C48" transform="translate(96,214)"/>
<path d="M0 0 C0.66 0.33 1.32 0.66 2 1 C1.67 1.99 1.34 2.98 1 4 C-2.0625 5.1875 -2.0625 5.1875 -5 6 C-4.75 4.125 -4.75 4.125 -4 2 C-2.0625 0.6875 -2.0625 0.6875 0 0 Z " fill="#008444" transform="translate(517,94)"/>
<path d="M0 0 C0 0.66 0 1.32 0 2 C-3.3 1.67 -6.6 1.34 -10 1 C-6.1496895 -1.56687367 -4.41430237 -0.83288724 0 0 Z " fill="#008746" transform="translate(277,216)"/>
</svg>
